<svg xmlns="http://www.w3.org/2000/svg">

  <symbol viewBox="0 0 18 18" id="cart-icon">
    <path
      d="M3.2153 2.5H0.609375V0.5H5.00345L5.45226 4.5H16.6094V10.4384L4.37878 12.8694L3.2153 2.5ZM16.1094 17.5C15.2809 17.5 14.6094 16.8284 14.6094 16C14.6094 15.1716 15.2809 14.5 16.1094 14.5C16.9378 14.5 17.6094 15.1716 17.6094 16C17.6094 16.8284 16.9378 17.5 16.1094 17.5ZM6.10938 17.5C5.28095 17.5 4.60938 16.8284 4.60938 16C4.60938 15.1716 5.28095 14.5 6.10938 14.5C6.9378 14.5 7.60938 15.1716 7.60938 16C7.60938 16.8284 6.9378 17.5 6.10938 17.5Z" />
  </symbol>

</svg>